<svg width="30" height="30" viewBox="0 0 30 30" fill="none" xmlns="http://www.w3.org/2000/svg">
<path d="M0 4C0 1.79086 1.79086 0 4 0H26C28.2091 0 30 1.79086 30 4V26C30 28.2091 28.2091 30 26 30H4C1.79086 30 0 28.2091 0 26V4Z" fill="#9FDB3D"/>
<path fill-rule="evenodd" clip-rule="evenodd" d="M26.7071 7.29289C27.0976 7.68342 27.0976 8.31658 26.7071 8.70711L12.7071 22.7071C12.3166 23.0976 11.6834 23.0976 11.2929 22.7071L4.29289 15.7071C3.90237 15.3166 3.90237 14.6834 4.29289 14.2929C4.68342 13.9024 5.31658 13.9024 5.70711 14.2929L12 20.5858L25.2929 7.29289C25.6834 6.90237 26.3166 6.90237 26.7071 7.29289Z" fill="white"/>
</svg>
